# xmcd
#
# Track frame offsets: 
#        150
#        10425
#        29475
#        42675
#        54450
#        67200
#        83100
#        100800
#        114708
#        133458
#        189408
#        209058
#        241008
#
# Disc length: 3454 seconds
#
# Revision: 0
# Processed by: cddbd v1.5.2PL0 Copyright (c) Steve Scherf et al.
# Submitted via: ExactAudioCopy v0.95b4
#
DISCID=c60d7c0d
DTITLE=David Bowie  - Sound and Vision - Earl's Court London - 07-01-78 
DTITLE=Disc 2  FLAC
DYEAR=1900
DGENRE=
TTITLE0=Band Intro
TTITLE1=Five Years
TTITLE2=Soul Love
TTITLE3=Star
TTITLE4=Hang On To Yourself
TTITLE5=Ziggy Stardust
TTITLE6=Suffragette City
TTITLE7=Art Decade
TTITLE8=Alabama Song
TTITLE9=Station To Station
TTITLE10=Tvc 15
TTITLE11=Stay
TTITLE12=Rebel Rebel
EXTD=
EXTT0=
EXTT1=
EXTT2=
EXTT3=
EXTT4=
EXTT5=
EXTT6=
EXTT7=
EXTT8=
EXTT9=
EXTT10=
EXTT11=
EXTT12=
PLAYORDER=
